M48
;DRILL file {kicad (2015-04-09 BZR 5589)-product} date Monday, June 29, 2015 'PMt' 04:42:36 PM
;FORMAT={-:-/ absolute / inch / decimal}
FMAT,2
INCH,TZ
T1C0.016
T2C0.040
%
G90
G05
M72
T1
X6.135Y-4.19
X6.215Y-4.2925
X6.24Y-4.405
X6.285Y-4.355
X6.295Y-4.19
X6.41Y-4.14
X6.43Y-4.27
X6.4523Y-4.72
X6.4725Y-4.27
X6.5125Y-4.39
X6.55Y-4.72
X6.5507Y-4.72
X6.555Y-4.295
X6.555Y-4.39
X6.565Y-4.33
X6.5775Y-4.27
X6.61Y-4.39
X6.62Y-4.27
X6.6293Y-4.72
X6.645Y-4.39
X6.665Y-4.27
X6.6811Y-4.3543
X6.6875Y-4.61
X6.695Y-4.205
X6.7275Y-4.7225
X6.7283Y-4.4016
X6.74Y-4.14
X6.7874Y-4.3622
X6.7875Y-4.61
X6.8425Y-4.3819
X6.85Y-4.25
X6.875Y-4.3925
X6.93Y-4.14
X7.05Y-4.25
T2
X6.1375Y-4.53
X6.2375Y-4.53
X6.3375Y-4.53
X6.4375Y-4.53
X6.5375Y-4.53
X6.6375Y-4.53
X6.7375Y-4.53
X6.8375Y-4.53
X6.9375Y-4.53
X7.0375Y-4.53
T0
M30
