<?xml version="1.0" standalone="no"?>
 <!DOCTYPE svg PUBLIC "-//W3C//DTD SVG 1.1//EN" 
 "http://www.w3.org/Graphics/SVG/1.1/DTD/svg11.dtd"> 
<svg xmlns="http://www.w3.org/2000/svg" version="1.1" 
    width="29.7002cm" height="21.0007cm" viewBox="0 0 116930 82680 ">
<title>SVG Picture created as radius-B_Cu.svg date 2015/06/25 01:35:16 </title>
  <desc>Picture generated by PCBNEW </desc>
<g style="fill:#000000; fill-opacity:1;stroke:#000000; stroke-opacity:1;
stroke-linecap:round; stroke-linejoin:round; "
 transform="translate(0 0) scale(1 1)">
</g>
<g style="fill:#000000; fill-opacity:0.0; 
stroke:#000000; stroke-width:39.3701; stroke-opacity:1; 
stroke-linecap:round; stroke-linejoin:round;">
</g>
<g style="fill:#000000; fill-opacity:1.0; 
stroke:#000000; stroke-width:39.3701; stroke-opacity:1; 
stroke-linecap:round; stroke-linejoin:round;">
<polyline style="fill-rule:evenodd;"
points="59217,45052
59217,45813
58577,45813
58577,45052
59217,45052
" /> 
</g>
<g style="fill:#000000; fill-opacity:1.0; 
stroke:#000000; stroke-width:680; stroke-opacity:1; 
stroke-linecap:round; stroke-linejoin:round;">
</g>
<g style="fill:#000000; fill-opacity:0.0; 
stroke:#000000; stroke-width:680; stroke-opacity:1; 
stroke-linecap:round; stroke-linejoin:round;">
<path d="M57897 45493
L57897 45373
" />
<path d="M56897 45493
L56897 45373
" />
<path d="M55897 45493
L55897 45373
" />
</g>
<g style="fill:#000000; fill-opacity:0.0; 
stroke:#000000; stroke-width:39.3701; stroke-opacity:1; 
stroke-linecap:round; stroke-linejoin:round;">
</g>
<g style="fill:#000000; fill-opacity:1.0; 
stroke:#000000; stroke-width:39.3701; stroke-opacity:1; 
stroke-linecap:round; stroke-linejoin:round;">
<polyline style="fill-rule:evenodd;"
points="62032,42533
62032,43293
61392,43293
61392,42533
62032,42533
" /> 
</g>
<g style="fill:#000000; fill-opacity:1.0; 
stroke:#000000; stroke-width:680; stroke-opacity:1; 
stroke-linecap:round; stroke-linejoin:round;">
</g>
<g style="fill:#000000; fill-opacity:0.0; 
stroke:#000000; stroke-width:680; stroke-opacity:1; 
stroke-linecap:round; stroke-linejoin:round;">
<path d="M60712 42973
L60712 42853
" />
<path d="M59712 42973
L59712 42853
" />
<path d="M58712 42973
L58712 42853
" />
<path d="M57712 42973
L57712 42853
" />
<path d="M56712 42973
L56712 42853
" />
<path d="M55712 42973
L55712 42853
" />
<path d="M54712 42973
L54712 42853
" />
<path d="M53712 42973
L53712 42853
" />
<path d="M52712 42973
L52712 42853
" />
</g>
<g style="fill:#000000; fill-opacity:0.0; 
stroke:#000000; stroke-width:39.3701; stroke-opacity:1; 
stroke-linecap:round; stroke-linejoin:round;">
</g>
<g style="fill:#000000; fill-opacity:1.0; 
stroke:#000000; stroke-width:39.3701; stroke-opacity:1; 
stroke-linecap:round; stroke-linejoin:round;">
<circle cx="57200" cy="44200" r="98.4252" /> 
<circle cx="56350" cy="40500" r="98.4252" /> 
<circle cx="54650" cy="40450" r="98.4252" /> 
<circle cx="57350" cy="41200" r="98.4252" /> 
<circle cx="55100" cy="40200" r="98.4252" /> 
<circle cx="55650" cy="40450" r="98.4252" /> 
<circle cx="60300" cy="40300" r="98.4252" /> 
<circle cx="52900" cy="40450" r="98.4252" /> 
<circle cx="56900" cy="40000" r="98.4252" /> 
<circle cx="56650" cy="40250" r="98.4252" /> 
<circle cx="53100" cy="40800" r="98.4252" /> 
<circle cx="52500" cy="40000" r="98.4252" /> 
<circle cx="60705" cy="40950" r="98.4252" /> 
<circle cx="54750" cy="41350" r="98.4252" /> 
<circle cx="55100" cy="41350" r="98.4252" /> 
<circle cx="55800" cy="42300" r="98.4252" /> 
<circle cx="55400" cy="42300" r="98.4252" /> 
<circle cx="54300" cy="42050" r="98.4252" /> 
<circle cx="56696" cy="43854" r="98.4252" /> 
<circle cx="53700" cy="41000" r="98.4252" /> 
<circle cx="61445" cy="41150" r="98.4252" /> 
</g>
<g style="fill:#000000; fill-opacity:1.0; 
stroke:#000000; stroke-width:98.4252; stroke-opacity:1; 
stroke-linecap:round; stroke-linejoin:round;">
</g>
<g style="fill:#000000; fill-opacity:0.0; 
stroke:#000000; stroke-width:98.4252; stroke-opacity:1; 
stroke-linecap:round; stroke-linejoin:round;">
<path d="M55966 45433
L57200 44200
" />
<path d="M55897 45433
L55966 45433
" />
<path d="M54650 40450
L54650 40161
" />
<path d="M55774 39924
L56350 40500
" />
<path d="M54886 39924
L55774 39924
" />
<path d="M54650 40161
L54886 39924
" />
<path d="M57350 41200
L57350 41150
" />
<path d="M56700 41050
L55850 41050
" />
<path d="M56850 40900
L56700 41050
" />
<path d="M57100 40900
L56850 40900
" />
<path d="M57350 41150
L57100 40900
" />
<path d="M55100 40200
L55100 40300
" />
<path d="M55100 40300
L55850 41050
" />
<path d="M60300 40300
L57150 40300
" />
<path d="M56650 40800
L57150 40300
" />
<path d="M56000 40800
L56650 40800
" />
<path d="M56000 40800
L55650 40450
" />
<path d="M54250 39530
L56399 39549
" />
<path d="M53600 40300
L54250 39530
" />
<path d="M53250 40300
L53600 40300
" />
<path d="M53100 40450
L53250 40300
" />
<path d="M52900 40450
L53100 40450
" />
<path d="M56399 39548
L56900 40000
" />
<path d="M56650 40250
L56200 39750
" />
<path d="M53800 40550
L54475 39729
" />
<path d="M53800 40550
L53350 40550
" />
<path d="M53350 40550
L53100 40800
" />
<path d="M56200 39750
L54475 39729
" />
<path d="M52500 40000
L53195 39305
" />
<path d="M53195 39305
L60750 39300
" />
<path d="M61250 39800
L60750 39300
" />
<path d="M60712 41397
L60712 42913
" />
<path d="M60712 40960
L60712 41397
" />
<path d="M60705 40950
L60712 40957
" />
<path d="M60712 40957
L60717 40957
" />
<path d="M60717 40957
L60720 40960
" />
<path d="M60720 40960
L60712 40960
" />
<path d="M60705 40945
L61250 40400
" />
<path d="M61250 40400
L61250 39800
" />
<path d="M60705 40950
L60705 40945
" />
<path d="M54750 41350
L54750 41349
" />
<path d="M54750 41300
L55000 41050
" />
<path d="M55000 41050
L55200 41050
" />
<path d="M55200 41050
L55850 41700
" />
<path d="M55850 41700
L58499 41700
" />
<path d="M58499 41700
L59712 42913
" />
<path d="M54750 41350
L54750 41300
" />
<path d="M58680 42880
L58712 42913
" />
<path d="M55100 41550
L55450 41900
" />
<path d="M55450 41900
L57699 41900
" />
<path d="M57699 41900
L58712 42913
" />
<path d="M55100 41350
L55100 41550
" />
<path d="M55800 42300
L57050 42300
" />
<path d="M57695 42895
L57712 42913
" />
<path d="M57648 42848
L57712 42913
" />
<path d="M57663 42913
L57712 42913
" />
<path d="M57050 42300
L57663 42913
" />
<path d="M52800 43000
L52712 42913
" />
<path d="M52712 41537
L53522 40727
" />
<path d="M53522 40727
L53877 40727
" />
<path d="M53877 40727
L54200 41050
" />
<path d="M54200 41050
L54200 41200
" />
<path d="M54200 41200
L55300 42300
" />
<path d="M52712 42913
L52712 41537
" />
<path d="M55400 42300
L55300 42300
" />
<path d="M54863 42913
L54712 42913
" />
<path d="M54712 42912
L54712 42913
" />
<path d="M54712 42913
L54791 42913
" />
<path d="M54712 43176
L54712 42913
" />
<path d="M54712 42913
L54853 42913
" />
<path d="M54712 42462
L54300 42050
" />
<path d="M54712 42913
L54712 42462
" />
<path d="M53779 42846
L53712 42913
" />
<path d="M53712 42913
L53712 43296
" />
<path d="M54000 43584
L55194 43584
" />
<path d="M55194 43584
L55500 43850
" />
<path d="M53712 43296
L54000 43584
" />
<path d="M56696 43853
L55500 43850
" />
<path d="M57897 45433
L57900 44250
" />
<path d="M53700 41000
L53700 41000
" />
<path d="M53700 41000
L55200 42550
" />
<path d="M55200 43250
L55200 42550
" />
<path d="M55500 43550
L55200 43250
" />
<path d="M57150 43550
L55500 43550
" />
<path d="M57900 44250
L57150 43550
" />
<path d="M61445 41150
L61205 41390
" />
<path d="M61205 41390
L61205 43225
" />
<path d="M61205 43225
L60860 43570
" />
<path d="M60860 43570
L59630 43570
" />
<path d="M59630 43570
L58897 44302
" />
<path d="M58897 44302
L58897 45433
" />
</g>
<g style="fill:#000000; fill-opacity:1.0; 
stroke:#000000; stroke-width:100; stroke-opacity:1; 
stroke-linecap:round; stroke-linejoin:round;">
<polyline style="fill-rule:evenodd;"
points="54107,39269
54078,39292
54040,39317
54033,39328
54022,39337
53461,40000
53250,40000
53135,40023
53038,40088
53023,40102
52973,40081
52827,40081
52691,40137
52588,40241
52531,40376
52531,40522
52587,40658
52691,40761
52731,40778
52731,40872
52787,41008
52803,41023
52519,41307
52519,39269
54107,39269
" /> 
<polyline style="fill-rule:evenodd;"
points="61980,41650
61504,41650
61504,41518
61517,41518
61653,41462
61756,41358
61813,41223
61813,41077
61757,40941
61653,40838
61518,40781
61372,40781
61236,40837
61133,40941
61076,41076
61076,41094
60993,41178
60928,41275
60905,41390
60905,41650
60349,41650
58881,41659
58710,41488
58613,41423
58499,41400
57665,41400
57718,41273
57718,41127
57662,40991
57558,40888
57477,40854
57311,40688
57235,40637
57273,40599
60078,40599
60091,40611
60226,40668
60372,40668
60508,40612
60611,40508
60668,40373
60668,40227
60612,40091
60508,39988
60373,39931
60227,39931
60091,39987
60078,40000
57268,40000
57268,39927
57212,39791
57108,39688
56973,39631
56938,39631
56600,39325
56546,39293
56516,39273
56510,39272
56505,39269
61980,39269
61980,41650
" /> 
</g> 
</svg>
