<?xml version="1.0" standalone="no"?>
 <!DOCTYPE svg PUBLIC "-//W3C//DTD SVG 1.1//EN" 
 "http://www.w3.org/Graphics/SVG/1.1/DTD/svg11.dtd"> 
<svg xmlns="http://www.w3.org/2000/svg" version="1.1" 
    width="29.7002cm" height="21.0007cm" viewBox="0 0 116930 82680 ">
<title>SVG Picture created as radius-F_SilkS.svg date 2015/06/25 01:35:16 </title>
  <desc>Picture generated by PCBNEW </desc>
<g style="fill:#000000; fill-opacity:1;stroke:#000000; stroke-opacity:1;
stroke-linecap:round; stroke-linejoin:round; "
 transform="translate(0 0) scale(1 1)">
</g>
<g style="fill:#000000; fill-opacity:0.0; 
stroke:#000000; stroke-width:59.0551; stroke-opacity:1; 
stroke-linecap:round; stroke-linejoin:round;">
<path d="M54655 39753
L54655 41505
" />
<path d="M57312 39153
L57312 41505
" />
<path d="M54428 41259
L54428 39685
" />
<path d="M52343 41761
L52343 39685
" />
<circle cx="58603" cy="40269" r="55.8657" /> 
<path d="M59076 40623
L58524 40623
" />
<path d="M58524 39167
L59076 39167
" />
<circle cx="60431.1" cy="40929.9" r="50" /> 
<path d="M60181 41179
L62181 41179
" />
<path d="M60181 39879
L62181 39879
" />
<path d="M60181 41379
L62181 41379
" />
<path d="M60181 41379
L60181 39879
" />
<path d="M62181 41379
L62181 39879
" />
<path d="M58397 45933
L55397 45933
" />
<path d="M58397 44933
L55397 44933
" />
<path d="M59507 44822
L58897 44822
" />
<path d="M55397 45933
L55397 44933
" />
<path d="M58397 44933
L58397 45933
" />
<path d="M58897 46043
L59507 46043
" />
<path d="M59507 46043
L59507 44822
" />
<path d="M55212 38937
L55212 42413
" />
<path d="M56212 38937
L55212 38937
" />
<path d="M56212 42413
L55212 42413
" />
<path d="M55212 42413
L54212 42413
" />
<path d="M55212 38937
L54212 38937
" />
<path d="M54212 38937
L54212 42413
" />
<path d="M53212 38937
L53212 42413
" />
<path d="M54212 38937
L53212 38937
" />
<path d="M54212 42413
L53212 42413
" />
<path d="M53212 42413
L52212 42413
" />
<path d="M53212 38937
L52212 38937
" />
<path d="M52212 38937
L52212 42413
" />
<path d="M56212 38937
L56212 42413
" />
<path d="M57212 38937
L56212 38937
" />
<path d="M57212 42413
L56212 42413
" />
<path d="M58212 42413
L57212 42413
" />
<path d="M58212 38937
L57212 38937
" />
<path d="M57212 38937
L57212 42413
" />
<path d="M58212 38937
L58212 42413
" />
<path d="M59212 38937
L58212 38937
" />
<path d="M59212 42413
L58212 42413
" />
<path d="M60212 42413
L59212 42413
" />
<path d="M60212 38937
L59212 38937
" />
<path d="M59212 38937
L59212 42413
" />
<path d="M60212 38937
L60212 42413
" />
<path d="M61212 38937
L60212 38937
" />
<path d="M61212 42413
L61212 38937
" />
<path d="M61212 42413
L60212 42413
" />
<path d="M62212 42413
L61212 42413
" />
<path d="M61712 43464
L62322 43464
" />
<path d="M62322 43464
L62322 42913
" />
<path d="M62212 42413
L62212 38937
" />
<path d="M62212 38937
L61212 38937
" />
<path d="M61212 38937
L61212 42413
" />
<path d="M60086 41462
L60086 41737
" />
<path d="M59613 41737
L59613 41462
" />
<path d="M53162 42361
L52887 42361
" />
<path d="M52887 41888
L53162 41888
" />
<path d="M58011 41462
L58011 41737
" />
<path d="M57538 41737
L57538 41462
" />
<path d="M58213 41737
L58213 41462
" />
<path d="M58686 41462
L58686 41737
" />
<path d="M58913 41737
L58913 41462
" />
<path d="M59386 41462
L59386 41737
" />
<path d="M57855 41014
L57461 41014
" />
<path d="M57817 40601
L57836 40620
L57855 40676
L57855 40714
L57836 40770
L57799 40808
L57761 40826
L57686 40845
L57630 40845
L57555 40826
L57517 40808
L57480 40770
L57461 40714
L57461 40676
L57480 40620
L57499 40601
" />
<path d="M57855 40226
L57855 40451
" />
<path d="M57855 40339
L57461 40339
L57517 40376
L57555 40414
L57574 40451
" />
<path d="M51792 40772
L52110 40772
L52148 40753
L52167 40734
L52185 40697
L52185 40622
L52167 40584
L52148 40566
L52110 40547
L51792 40547
" />
<path d="M52185 40153
L52185 40378
" />
<path d="M52185 40266
L51792 40266
L51848 40303
L51886 40341
L51904 40378
" />
<path d="M58612 38385
L58612 38573
" />
<path d="M58481 38179
L58612 38385
L58743 38179
" />
<path d="M59081 38573
L58856 38573
" />
<path d="M58968 38573
L58968 38179
L58931 38235
L58893 38273
L58856 38291
" />
<path d="M60881 40414
L60881 40733
L60899 40770
L60918 40789
L60956 40808
L61031 40808
L61068 40789
L61087 40770
L61106 40733
L61106 40414
" />
<path d="M61274 40451
L61293 40433
L61331 40414
L61424 40414
L61462 40433
L61481 40451
L61499 40489
L61499 40526
L61481 40583
L61256 40808
L61499 40808
" />
<path d="M58607 47619
L58607 47225
L58757 47225
L58794 47244
L58813 47262
L58832 47300
L58832 47356
L58813 47394
L58794 47412
L58757 47431
L58607 47431
" />
<path d="M59206 47619
L58982 47619
" />
<path d="M59094 47619
L59094 47225
L59056 47281
L59019 47319
L58982 47337
" />
<path d="M61422 44961
L61422 44567
L61571 44567
L61609 44586
L61628 44605
L61646 44642
L61646 44699
L61628 44736
L61609 44755
L61571 44774
L61422 44774
" />
<path d="M61796 44605
L61815 44586
L61853 44567
L61946 44567
L61984 44586
L62003 44605
L62021 44642
L62021 44680
L62003 44736
L61778 44961
L62021 44961
" />
<path d="M60738 41665
L60757 41684
L60776 41740
L60776 41778
L60757 41834
L60719 41871
L60682 41890
L60607 41909
L60551 41909
L60476 41890
L60438 41871
L60401 41834
L60382 41778
L60382 41740
L60401 41684
L60419 41665
" />
<path d="M60776 41290
L60776 41515
" />
<path d="M60776 41403
L60382 41403
L60438 41440
L60476 41478
L60494 41515
" />
<path d="M52959 43013
L52940 43032
L52884 43051
L52846 43051
L52790 43032
L52753 42994
L52734 42957
L52715 42882
L52715 42826
L52734 42751
L52753 42713
L52790 42676
L52846 42657
L52884 42657
L52940 42676
L52959 42694
" />
<path d="M53109 42694
L53128 42676
L53165 42657
L53259 42657
L53296 42676
L53315 42694
L53334 42732
L53334 42769
L53315 42826
L53090 43051
L53334 43051
" />
<path d="M58663 41665
L58682 41684
L58701 41740
L58701 41778
L58682 41834
L58644 41871
L58607 41890
L58532 41909
L58476 41909
L58401 41890
L58363 41871
L58326 41834
L58307 41778
L58307 41740
L58326 41684
L58344 41665
" />
<path d="M58307 41534
L58307 41290
L58457 41421
L58457 41365
L58476 41328
L58494 41309
L58532 41290
L58626 41290
L58663 41309
L58682 41328
L58701 41365
L58701 41478
L58682 41515
L58663 41534
" />
<path d="M57842 41665
L57861 41684
L57880 41740
L57880 41778
L57861 41834
L57823 41871
L57786 41890
L57711 41909
L57655 41909
L57580 41890
L57542 41871
L57505 41834
L57486 41778
L57486 41740
L57505 41684
L57523 41665
" />
<path d="M57617 41328
L57880 41328
" />
<path d="M57467 41421
L57748 41515
L57748 41271
" />
<path d="M58542 41665
L58561 41684
L58580 41740
L58580 41778
L58561 41834
L58523 41871
L58486 41890
L58411 41909
L58355 41909
L58280 41890
L58242 41871
L58205 41834
L58186 41778
L58186 41740
L58205 41684
L58223 41665
" />
<path d="M58186 41309
L58186 41496
L58373 41515
L58355 41496
L58336 41459
L58336 41365
L58355 41328
L58373 41309
L58411 41290
L58505 41290
L58542 41309
L58561 41328
L58580 41365
L58580 41459
L58561 41496
L58542 41515
" />
</g> 
</svg>
