G04 #@! TF.FileFunction,Legend,Top*
%FSLAX46Y46*%
G04 Gerber Fmt 4.6, Leading zero omitted, Abs format (unit mm)*
G04 Created by KiCad (PCBNEW (2015-04-09 BZR 5589)-product) date Monday, June 29, 2015 'PMt' 04:43:36 PM*
%MOMM*%
G01*
G04 APERTURE LIST*
%ADD10C,0.100000*%
%ADD11C,0.300000*%
%ADD12C,0.150000*%
G04 APERTURE END LIST*
D10*
D11*
X164600286Y-122598571D02*
X164100286Y-121884286D01*
X163743143Y-122598571D02*
X163743143Y-121098571D01*
X164314571Y-121098571D01*
X164457429Y-121170000D01*
X164528857Y-121241429D01*
X164600286Y-121384286D01*
X164600286Y-121598571D01*
X164528857Y-121741429D01*
X164457429Y-121812857D01*
X164314571Y-121884286D01*
X163743143Y-121884286D01*
X165171714Y-122170000D02*
X165886000Y-122170000D01*
X165028857Y-122598571D02*
X165528857Y-121098571D01*
X166028857Y-122598571D01*
X166528857Y-122598571D02*
X166528857Y-121098571D01*
X166886000Y-121098571D01*
X167100285Y-121170000D01*
X167243143Y-121312857D01*
X167314571Y-121455714D01*
X167386000Y-121741429D01*
X167386000Y-121955714D01*
X167314571Y-122241429D01*
X167243143Y-122384286D01*
X167100285Y-122527143D01*
X166886000Y-122598571D01*
X166528857Y-122598571D01*
X168028857Y-122598571D02*
X168028857Y-121098571D01*
X168743143Y-121098571D02*
X168743143Y-122312857D01*
X168814571Y-122455714D01*
X168886000Y-122527143D01*
X169028857Y-122598571D01*
X169314571Y-122598571D01*
X169457429Y-122527143D01*
X169528857Y-122455714D01*
X169600286Y-122312857D01*
X169600286Y-121098571D01*
X170243143Y-122527143D02*
X170457429Y-122598571D01*
X170814572Y-122598571D01*
X170957429Y-122527143D01*
X171028858Y-122455714D01*
X171100286Y-122312857D01*
X171100286Y-122170000D01*
X171028858Y-122027143D01*
X170957429Y-121955714D01*
X170814572Y-121884286D01*
X170528858Y-121812857D01*
X170386000Y-121741429D01*
X170314572Y-121670000D01*
X170243143Y-121527143D01*
X170243143Y-121384286D01*
X170314572Y-121241429D01*
X170386000Y-121170000D01*
X170528858Y-121098571D01*
X170886000Y-121098571D01*
X171100286Y-121170000D01*
D12*
X161198000Y-107157000D02*
X161198000Y-106457000D01*
X162398000Y-106457000D02*
X162398000Y-107157000D01*
X178785000Y-105756000D02*
X178085000Y-105756000D01*
X178085000Y-104556000D02*
X178785000Y-104556000D01*
X173959000Y-105756000D02*
X173259000Y-105756000D01*
X173259000Y-104556000D02*
X173959000Y-104556000D01*
X169100000Y-105750000D02*
X168400000Y-105750000D01*
X168400000Y-104550000D02*
X169100000Y-104550000D01*
X164600000Y-104550000D02*
X165300000Y-104550000D01*
X165300000Y-105750000D02*
X164600000Y-105750000D01*
X162741000Y-107757000D02*
X162741000Y-112207000D01*
X169491000Y-106232000D02*
X169491000Y-112207000D01*
X169672000Y-109093000D02*
X170434000Y-109093000D01*
X170434000Y-109093000D02*
X170434000Y-110617000D01*
X170434000Y-110617000D02*
X169672000Y-110617000D01*
X180848000Y-107569000D02*
X180848000Y-112141000D01*
X180848000Y-112141000D02*
X169672000Y-112141000D01*
X169672000Y-112141000D02*
X169672000Y-107569000D01*
X169672000Y-107569000D02*
X180848000Y-107569000D01*
X159131000Y-113157000D02*
G75*
G03X159131000Y-113157000I-127000J0D01*
G01*
X159639000Y-113792000D02*
X159639000Y-108712000D01*
X156337000Y-113792000D02*
X156337000Y-108712000D01*
X160147000Y-113792000D02*
X160147000Y-108712000D01*
X160147000Y-113792000D02*
X156337000Y-113792000D01*
X160147000Y-108712000D02*
X156337000Y-108712000D01*
X158376279Y-105603040D02*
G75*
G03X158376279Y-105603040I-141899J0D01*
G01*
X157032960Y-104703880D02*
X158435040Y-104703880D01*
X158435040Y-108402120D02*
X157032960Y-108402120D01*
X160255143Y-106973666D02*
X160302762Y-107021285D01*
X160350381Y-107164142D01*
X160350381Y-107259380D01*
X160302762Y-107402238D01*
X160207524Y-107497476D01*
X160112286Y-107545095D01*
X159921810Y-107592714D01*
X159778952Y-107592714D01*
X159588476Y-107545095D01*
X159493238Y-107497476D01*
X159398000Y-107402238D01*
X159350381Y-107259380D01*
X159350381Y-107164142D01*
X159398000Y-107021285D01*
X159445619Y-106973666D01*
X160350381Y-106021285D02*
X160350381Y-106592714D01*
X160350381Y-106307000D02*
X159350381Y-106307000D01*
X159493238Y-106402238D01*
X159588476Y-106497476D01*
X159636095Y-106592714D01*
X178268334Y-107413143D02*
X178220715Y-107460762D01*
X178077858Y-107508381D01*
X177982620Y-107508381D01*
X177839762Y-107460762D01*
X177744524Y-107365524D01*
X177696905Y-107270286D01*
X177649286Y-107079810D01*
X177649286Y-106936952D01*
X177696905Y-106746476D01*
X177744524Y-106651238D01*
X177839762Y-106556000D01*
X177982620Y-106508381D01*
X178077858Y-106508381D01*
X178220715Y-106556000D01*
X178268334Y-106603619D01*
X178649286Y-106603619D02*
X178696905Y-106556000D01*
X178792143Y-106508381D01*
X179030239Y-106508381D01*
X179125477Y-106556000D01*
X179173096Y-106603619D01*
X179220715Y-106698857D01*
X179220715Y-106794095D01*
X179173096Y-106936952D01*
X178601667Y-107508381D01*
X179220715Y-107508381D01*
X173442334Y-107413143D02*
X173394715Y-107460762D01*
X173251858Y-107508381D01*
X173156620Y-107508381D01*
X173013762Y-107460762D01*
X172918524Y-107365524D01*
X172870905Y-107270286D01*
X172823286Y-107079810D01*
X172823286Y-106936952D01*
X172870905Y-106746476D01*
X172918524Y-106651238D01*
X173013762Y-106556000D01*
X173156620Y-106508381D01*
X173251858Y-106508381D01*
X173394715Y-106556000D01*
X173442334Y-106603619D01*
X173775667Y-106508381D02*
X174394715Y-106508381D01*
X174061381Y-106889333D01*
X174204239Y-106889333D01*
X174299477Y-106936952D01*
X174347096Y-106984571D01*
X174394715Y-107079810D01*
X174394715Y-107317905D01*
X174347096Y-107413143D01*
X174299477Y-107460762D01*
X174204239Y-107508381D01*
X173918524Y-107508381D01*
X173823286Y-107460762D01*
X173775667Y-107413143D01*
X168583334Y-107407143D02*
X168535715Y-107454762D01*
X168392858Y-107502381D01*
X168297620Y-107502381D01*
X168154762Y-107454762D01*
X168059524Y-107359524D01*
X168011905Y-107264286D01*
X167964286Y-107073810D01*
X167964286Y-106930952D01*
X168011905Y-106740476D01*
X168059524Y-106645238D01*
X168154762Y-106550000D01*
X168297620Y-106502381D01*
X168392858Y-106502381D01*
X168535715Y-106550000D01*
X168583334Y-106597619D01*
X169440477Y-106835714D02*
X169440477Y-107502381D01*
X169202381Y-106454762D02*
X168964286Y-107169048D01*
X169583334Y-107169048D01*
X164783334Y-103607143D02*
X164735715Y-103654762D01*
X164592858Y-103702381D01*
X164497620Y-103702381D01*
X164354762Y-103654762D01*
X164259524Y-103559524D01*
X164211905Y-103464286D01*
X164164286Y-103273810D01*
X164164286Y-103130952D01*
X164211905Y-102940476D01*
X164259524Y-102845238D01*
X164354762Y-102750000D01*
X164497620Y-102702381D01*
X164592858Y-102702381D01*
X164735715Y-102750000D01*
X164783334Y-102797619D01*
X165688096Y-102702381D02*
X165211905Y-102702381D01*
X165164286Y-103178571D01*
X165211905Y-103130952D01*
X165307143Y-103083333D01*
X165545239Y-103083333D01*
X165640477Y-103130952D01*
X165688096Y-103178571D01*
X165735715Y-103273810D01*
X165735715Y-103511905D01*
X165688096Y-103607143D01*
X165640477Y-103654762D01*
X165545239Y-103702381D01*
X165307143Y-103702381D01*
X165211905Y-103654762D01*
X165164286Y-103607143D01*
X170868381Y-110958190D02*
X169868381Y-110958190D01*
X170773143Y-109910571D02*
X170820762Y-109958190D01*
X170868381Y-110101047D01*
X170868381Y-110196285D01*
X170820762Y-110339143D01*
X170725524Y-110434381D01*
X170630286Y-110482000D01*
X170439810Y-110529619D01*
X170296952Y-110529619D01*
X170106476Y-110482000D01*
X170011238Y-110434381D01*
X169916000Y-110339143D01*
X169868381Y-110196285D01*
X169868381Y-110101047D01*
X169916000Y-109958190D01*
X169963619Y-109910571D01*
X170868381Y-108958190D02*
X170868381Y-109529619D01*
X170868381Y-109243905D02*
X169868381Y-109243905D01*
X170011238Y-109339143D01*
X170106476Y-109434381D01*
X170154095Y-109529619D01*
X174625095Y-108037381D02*
X174625095Y-108846905D01*
X174672714Y-108942143D01*
X174720333Y-108989762D01*
X174815571Y-109037381D01*
X175006048Y-109037381D01*
X175101286Y-108989762D01*
X175148905Y-108942143D01*
X175196524Y-108846905D01*
X175196524Y-108037381D01*
X176196524Y-109037381D02*
X175625095Y-109037381D01*
X175910809Y-109037381D02*
X175910809Y-108037381D01*
X175815571Y-108180238D01*
X175720333Y-108275476D01*
X175625095Y-108323095D01*
X157694381Y-112013905D02*
X158503905Y-112013905D01*
X158599143Y-111966286D01*
X158646762Y-111918667D01*
X158694381Y-111823429D01*
X158694381Y-111632952D01*
X158646762Y-111537714D01*
X158599143Y-111490095D01*
X158503905Y-111442476D01*
X157694381Y-111442476D01*
X157789619Y-111013905D02*
X157742000Y-110966286D01*
X157694381Y-110871048D01*
X157694381Y-110632952D01*
X157742000Y-110537714D01*
X157789619Y-110490095D01*
X157884857Y-110442476D01*
X157980095Y-110442476D01*
X158122952Y-110490095D01*
X158694381Y-111061524D01*
X158694381Y-110442476D01*
X157257809Y-110339190D02*
X157257809Y-110815381D01*
X156924476Y-109815381D02*
X157257809Y-110339190D01*
X157591143Y-109815381D01*
X158448286Y-110815381D02*
X157876857Y-110815381D01*
X158162571Y-110815381D02*
X158162571Y-109815381D01*
X158067333Y-109958238D01*
X157972095Y-110053476D01*
X157876857Y-110101095D01*
M02*
