G04 #@! TF.FileFunction,Copper,L2,Bot,Signal*
%FSLAX46Y46*%
G04 Gerber Fmt 4.6, Leading zero omitted, Abs format (unit mm)*
G04 Created by KiCad (PCBNEW (2015-04-09 BZR 5589)-product) date Monday, June 29, 2015 'PMt' 04:43:36 PM*
%MOMM*%
G01*
G04 APERTURE LIST*
%ADD10C,0.100000*%
%ADD11R,1.498600X7.498080*%
%ADD12R,0.998220X6.499860*%
%ADD13R,1.727200X2.032000*%
%ADD14O,1.727200X2.032000*%
%ADD15C,0.600000*%
%ADD16C,0.400000*%
%ADD17C,0.250000*%
%ADD18C,0.254000*%
G04 APERTURE END LIST*
D10*
D11*
X170883580Y-127704880D03*
D12*
X168384220Y-128202720D03*
X166387780Y-128202720D03*
D11*
X163888420Y-127704880D03*
D13*
X155892500Y-115062000D03*
D14*
X158432500Y-115062000D03*
X160972500Y-115062000D03*
X163512500Y-115062000D03*
X166052500Y-115062000D03*
X168592500Y-115062000D03*
X171132500Y-115062000D03*
X173672500Y-115062000D03*
X176212500Y-115062000D03*
X178752500Y-115062000D03*
D15*
X163322000Y-108458000D03*
X170053000Y-106807000D03*
X170878812Y-119950892D03*
X162814000Y-105156000D03*
X171196000Y-105156000D03*
X176022000Y-105156000D03*
X157861000Y-109029500D03*
X158496000Y-111887000D03*
X170900000Y-111800000D03*
X169700000Y-110600000D03*
X167068500Y-108458000D03*
X174625000Y-111569500D03*
X179070000Y-107950000D03*
X164401500Y-108458000D03*
X173990000Y-107950000D03*
X159893000Y-106426000D03*
X166497000Y-109093000D03*
X155829000Y-106426000D03*
X166751000Y-109982000D03*
X169291000Y-108458000D03*
X172400000Y-110800000D03*
X168148000Y-108458000D03*
X173800000Y-111300000D03*
X165417500Y-111506000D03*
X166497000Y-111506000D03*
X167894000Y-111506000D03*
X168783000Y-111506000D03*
X168384220Y-119888000D03*
X172402500Y-117094000D03*
X166387780Y-119888000D03*
X166370000Y-119888000D03*
X169862500Y-117094000D03*
X163888420Y-119888000D03*
X159639000Y-110617000D03*
D16*
X170053000Y-106807000D02*
X164973000Y-106807000D01*
X164973000Y-106807000D02*
X163322000Y-108458000D01*
X170883580Y-127704880D02*
X170878812Y-119950892D01*
X176022000Y-105156000D02*
X171196000Y-105156000D01*
X162814000Y-105156000D02*
X171196000Y-105156000D01*
X157861000Y-109029500D02*
X157861000Y-107188000D01*
X157861000Y-107188000D02*
X159893000Y-105156000D01*
X159893000Y-105156000D02*
X162814000Y-105156000D01*
X170900000Y-111800000D02*
X169700000Y-110600000D01*
D17*
X168455250Y-109844750D02*
X167068500Y-108458000D01*
X168465500Y-109855000D02*
X168455250Y-109844750D01*
X174625000Y-111569500D02*
X178244500Y-107950000D01*
X178244500Y-107950000D02*
X179070000Y-107950000D01*
X174194500Y-112000000D02*
X174625000Y-111569500D01*
X168455250Y-109844750D02*
X170544750Y-109844750D01*
X172000000Y-112000000D02*
X173900000Y-112000000D01*
X171000000Y-111000000D02*
X172000000Y-112000000D01*
X171000000Y-110300000D02*
X171000000Y-111000000D01*
X170544750Y-109844750D02*
X171000000Y-110300000D01*
X173900000Y-112000000D02*
X174194500Y-112000000D01*
X165481000Y-107442000D02*
X164401500Y-108458000D01*
X173482000Y-107442000D02*
X165481000Y-107442000D01*
X173990000Y-107950000D02*
X173482000Y-107442000D01*
X164846000Y-109093000D02*
X161417000Y-109093000D01*
X161417000Y-109093000D02*
X159893000Y-107569000D01*
X159893000Y-107569000D02*
X159893000Y-106426000D01*
X165354000Y-109093000D02*
X166497000Y-109093000D01*
X165354000Y-109093000D02*
X164846000Y-109093000D01*
X156845000Y-109982000D02*
X155829000Y-108966000D01*
X155829000Y-108966000D02*
X155829000Y-106426000D01*
X166751000Y-109982000D02*
X156845000Y-109982000D01*
X169291000Y-108458000D02*
X171208000Y-108458000D01*
X171208000Y-108458000D02*
X172021500Y-109271500D01*
X172400000Y-110800000D02*
X172021500Y-110421500D01*
X172021500Y-110421500D02*
X172021500Y-109271500D01*
X168990000Y-109300000D02*
X168148000Y-108458000D01*
X173800000Y-111300498D02*
X173600498Y-111500000D01*
X173600498Y-111500000D02*
X172200000Y-111500000D01*
X172200000Y-111500000D02*
X171500000Y-110800000D01*
X171500000Y-110800000D02*
X171500000Y-109900000D01*
X171500000Y-109900000D02*
X170900000Y-109300000D01*
X173800000Y-111300000D02*
X173800000Y-111300498D01*
X170900000Y-109300000D02*
X168990000Y-109300000D01*
X178752500Y-115062000D02*
X178752500Y-114490500D01*
X178752500Y-114490500D02*
X176784000Y-112522000D01*
X176784000Y-112522000D02*
X170688000Y-112522000D01*
X170688000Y-112522000D02*
X169037000Y-110871000D01*
X165417500Y-111506000D02*
X165989000Y-110871000D01*
X165989000Y-110871000D02*
X169037000Y-110871000D01*
X168148000Y-113157000D02*
X166497000Y-111506000D01*
X168910000Y-113157000D02*
X168148000Y-113157000D01*
X170815000Y-115062000D02*
X168910000Y-113157000D01*
X171132500Y-115062000D02*
X170815000Y-115062000D01*
X168391000Y-112014000D02*
X167894000Y-111506000D01*
X169164000Y-112649000D02*
X168391000Y-112014000D01*
X170053000Y-113538000D02*
X169164000Y-112649000D01*
X171831000Y-113538000D02*
X170053000Y-113538000D01*
X173355000Y-115062000D02*
X171831000Y-113538000D01*
X173672500Y-115062000D02*
X173355000Y-115062000D01*
X176212500Y-115062000D02*
X175768000Y-115062000D01*
X173736000Y-113030000D02*
X175768000Y-115062000D01*
X173736000Y-113030000D02*
X170307000Y-113030000D01*
X170307000Y-113030000D02*
X169291000Y-112014000D01*
X169291000Y-112014000D02*
X168783000Y-111506000D01*
X168384220Y-128202720D02*
X168384220Y-119888000D01*
X168384220Y-119888000D02*
X168384220Y-118699280D01*
X171577000Y-117919500D02*
X172402500Y-117094000D01*
X169164000Y-117919500D02*
X171577000Y-117919500D01*
X168384220Y-118699280D02*
X169164000Y-117919500D01*
X168402000Y-128184940D02*
X168384220Y-128202720D01*
X166751000Y-117094000D02*
X166387780Y-117457220D01*
X166387780Y-117457220D02*
X166387780Y-119888000D01*
X166387780Y-119888000D02*
X166387780Y-128202720D01*
X169037000Y-117094000D02*
X166751000Y-117094000D01*
X169862500Y-117094000D02*
X169037000Y-117094000D01*
D16*
X162242500Y-114427000D02*
X162242500Y-113220500D01*
X162242500Y-113220500D02*
X159639000Y-110617000D01*
X163888420Y-127704880D02*
X163888420Y-119888000D01*
X163888420Y-119888000D02*
X163888420Y-117792500D01*
X162242500Y-116141500D02*
X162242500Y-114427000D01*
X163888420Y-117787420D02*
X162242500Y-116141500D01*
D17*
X163888420Y-117792500D02*
X163888420Y-117787420D01*
D18*
G36*
X171116928Y-111940000D02*
X170929072Y-111940000D01*
X169448536Y-110459464D01*
X169399576Y-110426750D01*
X170303678Y-110426750D01*
X170418000Y-110541072D01*
X170418000Y-111000000D01*
X170462302Y-111222722D01*
X170588464Y-111411536D01*
X171116928Y-111940000D01*
X171116928Y-111940000D01*
G37*
X171116928Y-111940000D02*
X170929072Y-111940000D01*
X169448536Y-110459464D01*
X169399576Y-110426750D01*
X170303678Y-110426750D01*
X170418000Y-110541072D01*
X170418000Y-111000000D01*
X170462302Y-111222722D01*
X170588464Y-111411536D01*
X171116928Y-111940000D01*
G36*
X179960000Y-114356550D02*
X179686305Y-113946937D01*
X179257872Y-113660667D01*
X178752500Y-113560142D01*
X178663013Y-113577941D01*
X177195536Y-112110464D01*
X177006722Y-111984302D01*
X176784000Y-111940000D01*
X175290823Y-111940000D01*
X175381869Y-111720737D01*
X175381943Y-111635628D01*
X178485572Y-108532000D01*
X178581357Y-108532000D01*
X178640634Y-108591380D01*
X178918763Y-108706869D01*
X179219916Y-108707132D01*
X179498246Y-108592128D01*
X179711380Y-108379366D01*
X179826869Y-108101237D01*
X179827132Y-107800084D01*
X179712128Y-107521754D01*
X179499366Y-107308620D01*
X179221237Y-107193131D01*
X178920084Y-107192868D01*
X178641754Y-107307872D01*
X178581520Y-107368000D01*
X178244500Y-107368000D01*
X178021778Y-107412302D01*
X177832964Y-107538464D01*
X174558986Y-110812441D01*
X174475084Y-110812368D01*
X174409781Y-110839350D01*
X174229366Y-110658620D01*
X173951237Y-110543131D01*
X173650084Y-110542868D01*
X173371754Y-110657872D01*
X173158620Y-110870634D01*
X173156935Y-110874689D01*
X173157132Y-110650084D01*
X173042128Y-110371754D01*
X172829366Y-110158620D01*
X172603500Y-110064832D01*
X172603500Y-109271500D01*
X172559198Y-109048779D01*
X172559198Y-109048778D01*
X172433036Y-108859964D01*
X171619536Y-108046464D01*
X171585916Y-108024000D01*
X173232934Y-108024000D01*
X173232868Y-108099916D01*
X173347872Y-108378246D01*
X173560634Y-108591380D01*
X173838763Y-108706869D01*
X174139916Y-108707132D01*
X174418246Y-108592128D01*
X174631380Y-108379366D01*
X174746869Y-108101237D01*
X174747132Y-107800084D01*
X174632128Y-107521754D01*
X174419366Y-107308620D01*
X174141237Y-107193131D01*
X174056128Y-107193056D01*
X173893536Y-107030464D01*
X173704722Y-106904302D01*
X173482000Y-106860000D01*
X170809954Y-106860000D01*
X170810132Y-106657084D01*
X170695128Y-106378754D01*
X170482366Y-106165620D01*
X170204237Y-106050131D01*
X169903084Y-106049868D01*
X169660746Y-106150000D01*
X164973000Y-106150000D01*
X164721577Y-106200011D01*
X164508431Y-106342431D01*
X163134439Y-107716422D01*
X162893754Y-107815872D01*
X162680620Y-108028634D01*
X162565131Y-108306763D01*
X162564952Y-108511000D01*
X161658072Y-108511000D01*
X160475000Y-107327928D01*
X160475000Y-106914642D01*
X160534380Y-106855366D01*
X160649869Y-106577237D01*
X160650132Y-106276084D01*
X160535128Y-105997754D01*
X160322366Y-105784620D01*
X160044237Y-105669131D01*
X159743084Y-105668868D01*
X159464754Y-105783872D01*
X159251620Y-105996634D01*
X159136131Y-106274763D01*
X159135868Y-106575916D01*
X159250872Y-106854246D01*
X159311000Y-106914479D01*
X159311000Y-107569000D01*
X159355302Y-107791722D01*
X159481464Y-107980536D01*
X160900928Y-109400000D01*
X157086072Y-109400000D01*
X156411000Y-108724928D01*
X156411000Y-106914642D01*
X156470380Y-106855366D01*
X156585869Y-106577237D01*
X156586132Y-106276084D01*
X156471128Y-105997754D01*
X156258366Y-105784620D01*
X155980237Y-105669131D01*
X155679084Y-105668868D01*
X155400754Y-105783872D01*
X155187620Y-105996634D01*
X155072131Y-106274763D01*
X155071868Y-106575916D01*
X155186872Y-106854246D01*
X155247000Y-106914479D01*
X155247000Y-108966000D01*
X155291302Y-109188722D01*
X155417464Y-109377536D01*
X156433464Y-110393536D01*
X156622278Y-110519698D01*
X156845000Y-110564000D01*
X158882045Y-110564000D01*
X158881868Y-110766916D01*
X158996872Y-111045246D01*
X159209634Y-111258380D01*
X159451796Y-111358934D01*
X161585500Y-113492638D01*
X161585500Y-113732581D01*
X161477872Y-113660667D01*
X160972500Y-113560142D01*
X160467128Y-113660667D01*
X160038695Y-113946937D01*
X159752425Y-114375370D01*
X159702500Y-114626359D01*
X159652575Y-114375370D01*
X159366305Y-113946937D01*
X158937872Y-113660667D01*
X158432500Y-113560142D01*
X157927128Y-113660667D01*
X157498695Y-113946937D01*
X157391100Y-114107964D01*
X157391100Y-113919690D01*
X157294427Y-113686301D01*
X157115798Y-113507673D01*
X156882409Y-113411000D01*
X156178250Y-113411000D01*
X156019500Y-113569750D01*
X156019500Y-114935000D01*
X156039500Y-114935000D01*
X156039500Y-115189000D01*
X156019500Y-115189000D01*
X156019500Y-115209000D01*
X155765500Y-115209000D01*
X155765500Y-115189000D01*
X155745500Y-115189000D01*
X155745500Y-114935000D01*
X155765500Y-114935000D01*
X155765500Y-113569750D01*
X155606750Y-113411000D01*
X154902591Y-113411000D01*
X154685000Y-113501129D01*
X154685000Y-104774000D01*
X171958000Y-104774000D01*
X179960000Y-104774000D01*
X179960000Y-114356550D01*
X179960000Y-114356550D01*
G37*
X179960000Y-114356550D02*
X179686305Y-113946937D01*
X179257872Y-113660667D01*
X178752500Y-113560142D01*
X178663013Y-113577941D01*
X177195536Y-112110464D01*
X177006722Y-111984302D01*
X176784000Y-111940000D01*
X175290823Y-111940000D01*
X175381869Y-111720737D01*
X175381943Y-111635628D01*
X178485572Y-108532000D01*
X178581357Y-108532000D01*
X178640634Y-108591380D01*
X178918763Y-108706869D01*
X179219916Y-108707132D01*
X179498246Y-108592128D01*
X179711380Y-108379366D01*
X179826869Y-108101237D01*
X179827132Y-107800084D01*
X179712128Y-107521754D01*
X179499366Y-107308620D01*
X179221237Y-107193131D01*
X178920084Y-107192868D01*
X178641754Y-107307872D01*
X178581520Y-107368000D01*
X178244500Y-107368000D01*
X178021778Y-107412302D01*
X177832964Y-107538464D01*
X174558986Y-110812441D01*
X174475084Y-110812368D01*
X174409781Y-110839350D01*
X174229366Y-110658620D01*
X173951237Y-110543131D01*
X173650084Y-110542868D01*
X173371754Y-110657872D01*
X173158620Y-110870634D01*
X173156935Y-110874689D01*
X173157132Y-110650084D01*
X173042128Y-110371754D01*
X172829366Y-110158620D01*
X172603500Y-110064832D01*
X172603500Y-109271500D01*
X172559198Y-109048779D01*
X172559198Y-109048778D01*
X172433036Y-108859964D01*
X171619536Y-108046464D01*
X171585916Y-108024000D01*
X173232934Y-108024000D01*
X173232868Y-108099916D01*
X173347872Y-108378246D01*
X173560634Y-108591380D01*
X173838763Y-108706869D01*
X174139916Y-108707132D01*
X174418246Y-108592128D01*
X174631380Y-108379366D01*
X174746869Y-108101237D01*
X174747132Y-107800084D01*
X174632128Y-107521754D01*
X174419366Y-107308620D01*
X174141237Y-107193131D01*
X174056128Y-107193056D01*
X173893536Y-107030464D01*
X173704722Y-106904302D01*
X173482000Y-106860000D01*
X170809954Y-106860000D01*
X170810132Y-106657084D01*
X170695128Y-106378754D01*
X170482366Y-106165620D01*
X170204237Y-106050131D01*
X169903084Y-106049868D01*
X169660746Y-106150000D01*
X164973000Y-106150000D01*
X164721577Y-106200011D01*
X164508431Y-106342431D01*
X163134439Y-107716422D01*
X162893754Y-107815872D01*
X162680620Y-108028634D01*
X162565131Y-108306763D01*
X162564952Y-108511000D01*
X161658072Y-108511000D01*
X160475000Y-107327928D01*
X160475000Y-106914642D01*
X160534380Y-106855366D01*
X160649869Y-106577237D01*
X160650132Y-106276084D01*
X160535128Y-105997754D01*
X160322366Y-105784620D01*
X160044237Y-105669131D01*
X159743084Y-105668868D01*
X159464754Y-105783872D01*
X159251620Y-105996634D01*
X159136131Y-106274763D01*
X159135868Y-106575916D01*
X159250872Y-106854246D01*
X159311000Y-106914479D01*
X159311000Y-107569000D01*
X159355302Y-107791722D01*
X159481464Y-107980536D01*
X160900928Y-109400000D01*
X157086072Y-109400000D01*
X156411000Y-108724928D01*
X156411000Y-106914642D01*
X156470380Y-106855366D01*
X156585869Y-106577237D01*
X156586132Y-106276084D01*
X156471128Y-105997754D01*
X156258366Y-105784620D01*
X155980237Y-105669131D01*
X155679084Y-105668868D01*
X155400754Y-105783872D01*
X155187620Y-105996634D01*
X155072131Y-106274763D01*
X155071868Y-106575916D01*
X155186872Y-106854246D01*
X155247000Y-106914479D01*
X155247000Y-108966000D01*
X155291302Y-109188722D01*
X155417464Y-109377536D01*
X156433464Y-110393536D01*
X156622278Y-110519698D01*
X156845000Y-110564000D01*
X158882045Y-110564000D01*
X158881868Y-110766916D01*
X158996872Y-111045246D01*
X159209634Y-111258380D01*
X159451796Y-111358934D01*
X161585500Y-113492638D01*
X161585500Y-113732581D01*
X161477872Y-113660667D01*
X160972500Y-113560142D01*
X160467128Y-113660667D01*
X160038695Y-113946937D01*
X159752425Y-114375370D01*
X159702500Y-114626359D01*
X159652575Y-114375370D01*
X159366305Y-113946937D01*
X158937872Y-113660667D01*
X158432500Y-113560142D01*
X157927128Y-113660667D01*
X157498695Y-113946937D01*
X157391100Y-114107964D01*
X157391100Y-113919690D01*
X157294427Y-113686301D01*
X157115798Y-113507673D01*
X156882409Y-113411000D01*
X156178250Y-113411000D01*
X156019500Y-113569750D01*
X156019500Y-114935000D01*
X156039500Y-114935000D01*
X156039500Y-115189000D01*
X156019500Y-115189000D01*
X156019500Y-115209000D01*
X155765500Y-115209000D01*
X155765500Y-115189000D01*
X155745500Y-115189000D01*
X155745500Y-114935000D01*
X155765500Y-114935000D01*
X155765500Y-113569750D01*
X155606750Y-113411000D01*
X154902591Y-113411000D01*
X154685000Y-113501129D01*
X154685000Y-104774000D01*
X171958000Y-104774000D01*
X179960000Y-104774000D01*
X179960000Y-114356550D01*
M02*
