<?xml version="1.0" standalone="no"?>
 <!DOCTYPE svg PUBLIC "-//W3C//DTD SVG 1.1//EN" 
 "http://www.w3.org/Graphics/SVG/1.1/DTD/svg11.dtd"> 
<svg xmlns="http://www.w3.org/2000/svg" version="1.1" 
    width="29.7002cm" height="21.0007cm" viewBox="0 0 116930 82680 ">
<title>SVG Picture created as radius-F_Cu.svg date 2015/06/25 01:35:16 </title>
  <desc>Picture generated by PCBNEW </desc>
<g style="fill:#000000; fill-opacity:1;stroke:#000000; stroke-opacity:1;
stroke-linecap:round; stroke-linejoin:round; "
 transform="translate(0 0) scale(1 1)">
</g>
<g style="fill:#000000; fill-opacity:0.0; 
stroke:#000000; stroke-width:39.3701; stroke-opacity:1; 
stroke-linecap:round; stroke-linejoin:round;">
</g>
<g style="fill:#000000; fill-opacity:1.0; 
stroke:#000000; stroke-width:39.3701; stroke-opacity:1; 
stroke-linecap:round; stroke-linejoin:round;">
<polyline style="fill-rule:evenodd;"
points="57066,39202
57204,39202
57204,39734
57066,39734
57066,39202
" /> 
<polyline style="fill-rule:evenodd;"
points="56811,39202
56948,39202
56948,39734
56811,39734
56811,39202
" /> 
<polyline style="fill-rule:evenodd;"
points="56555,39202
56692,39202
56692,39734
56555,39734
56555,39202
" /> 
<polyline style="fill-rule:evenodd;"
points="56299,39202
56437,39202
56437,39734
56299,39734
56299,39202
" /> 
<polyline style="fill-rule:evenodd;"
points="56043,39202
56181,39202
56181,39734
56043,39734
56043,39202
" /> 
<polyline style="fill-rule:evenodd;"
points="55787,39202
55925,39202
55925,39734
55787,39734
55787,39202
" /> 
<polyline style="fill-rule:evenodd;"
points="55531,39202
55669,39202
55669,39734
55531,39734
55531,39202
" /> 
<polyline style="fill-rule:evenodd;"
points="55275,39202
55413,39202
55413,39734
55275,39734
55275,39202
" /> 
<polyline style="fill-rule:evenodd;"
points="55019,39202
55157,39202
55157,39734
55019,39734
55019,39202
" /> 
<polyline style="fill-rule:evenodd;"
points="54763,39202
54901,39202
54901,39734
54763,39734
54763,39202
" /> 
<polyline style="fill-rule:evenodd;"
points="54763,41525
54901,41525
54901,42057
54763,42057
54763,41525
" /> 
<polyline style="fill-rule:evenodd;"
points="55019,41525
55157,41525
55157,42057
55019,42057
55019,41525
" /> 
<polyline style="fill-rule:evenodd;"
points="55275,41525
55413,41525
55413,42057
55275,42057
55275,41525
" /> 
<polyline style="fill-rule:evenodd;"
points="55531,41525
55669,41525
55669,42057
55531,42057
55531,41525
" /> 
<polyline style="fill-rule:evenodd;"
points="55787,41525
55925,41525
55925,42057
55787,42057
55787,41525
" /> 
<polyline style="fill-rule:evenodd;"
points="56043,41525
56181,41525
56181,42057
56043,42057
56043,41525
" /> 
<polyline style="fill-rule:evenodd;"
points="56299,41525
56437,41525
56437,42057
56299,42057
56299,41525
" /> 
<polyline style="fill-rule:evenodd;"
points="56555,41525
56692,41525
56692,42057
56555,42057
56555,41525
" /> 
<polyline style="fill-rule:evenodd;"
points="56811,41525
56948,41525
56948,42057
56811,42057
56811,41525
" /> 
<polyline style="fill-rule:evenodd;"
points="57066,41525
57204,41525
57204,42057
57066,42057
57066,41525
" /> 
<polyline style="fill-rule:evenodd;"
points="52569,41712
52451,41712
52451,41279
52569,41279
52569,41712
" /> 
<polyline style="fill-rule:evenodd;"
points="52819,41712
52701,41712
52701,41279
52819,41279
52819,41712
" /> 
<polyline style="fill-rule:evenodd;"
points="53069,41712
52951,41712
52951,41279
53069,41279
53069,41712
" /> 
<polyline style="fill-rule:evenodd;"
points="53319,41712
53201,41712
53201,41279
53319,41279
53319,41712
" /> 
<polyline style="fill-rule:evenodd;"
points="53569,41712
53451,41712
53451,41279
53569,41279
53569,41712
" /> 
<polyline style="fill-rule:evenodd;"
points="53819,41712
53701,41712
53701,41279
53819,41279
53819,41712
" /> 
<polyline style="fill-rule:evenodd;"
points="54069,41712
53951,41712
53951,41279
54069,41279
54069,41712
" /> 
<polyline style="fill-rule:evenodd;"
points="54319,41712
54201,41712
54201,41279
54319,41279
54319,41712
" /> 
<polyline style="fill-rule:evenodd;"
points="54319,39665
54201,39665
54201,39232
54319,39232
54319,39665
" /> 
<polyline style="fill-rule:evenodd;"
points="54069,39665
53951,39665
53951,39232
54069,39232
54069,39665
" /> 
<polyline style="fill-rule:evenodd;"
points="53819,39665
53701,39665
53701,39232
53819,39232
53819,39665
" /> 
<polyline style="fill-rule:evenodd;"
points="53569,39665
53451,39665
53451,39232
53569,39232
53569,39665
" /> 
<polyline style="fill-rule:evenodd;"
points="53319,39665
53201,39665
53201,39232
53319,39232
53319,39665
" /> 
<polyline style="fill-rule:evenodd;"
points="53069,39665
52951,39665
52951,39232
53069,39232
53069,39665
" /> 
<polyline style="fill-rule:evenodd;"
points="52819,39665
52701,39665
52701,39232
52819,39232
52819,39665
" /> 
<polyline style="fill-rule:evenodd;"
points="52569,39665
52451,39665
52451,39232
52569,39232
52569,39665
" /> 
<polyline style="fill-rule:evenodd;"
points="57599,40622
57599,40111
58268,40111
58268,40622
57599,40622
" /> 
<polyline style="fill-rule:evenodd;"
points="59331,40622
59331,40111
60000,40111
60000,40622
59331,40622
" /> 
<polyline style="fill-rule:evenodd;"
points="59331,39678
59331,39167
60000,39167
60000,39678
59331,39678
" /> 
<polyline style="fill-rule:evenodd;"
points="57599,39678
57599,39167
58268,39167
58268,39678
57599,39678
" /> 
</g>
<g style="fill:#000000; fill-opacity:1.0; 
stroke:#000000; stroke-width:240; stroke-opacity:1; 
stroke-linecap:round; stroke-linejoin:round;">
</g>
<g style="fill:#000000; fill-opacity:0.0; 
stroke:#000000; stroke-width:240; stroke-opacity:1; 
stroke-linecap:round; stroke-linejoin:round;">
<path d="M60431 41559
L60431 41899
" />
<path d="M60931 41559
L60931 41899
" />
<path d="M61431 41559
L61431 41899
" />
<path d="M61931 41559
L61931 41899
" />
<path d="M61931 39359
L61931 39699
" />
<path d="M61431 39359
L61431 39699
" />
<path d="M60931 39359
L60931 39699
" />
<path d="M60431 39359
L60431 39699
" />
</g>
<g style="fill:#000000; fill-opacity:0.0; 
stroke:#000000; stroke-width:39.3701; stroke-opacity:1; 
stroke-linecap:round; stroke-linejoin:round;">
</g>
<g style="fill:#000000; fill-opacity:1.0; 
stroke:#000000; stroke-width:39.3701; stroke-opacity:1; 
stroke-linecap:round; stroke-linejoin:round;">
<polyline style="fill-rule:evenodd;"
points="59217,45052
59217,45813
58577,45813
58577,45052
59217,45052
" /> 
</g>
<g style="fill:#000000; fill-opacity:1.0; 
stroke:#000000; stroke-width:680; stroke-opacity:1; 
stroke-linecap:round; stroke-linejoin:round;">
</g>
<g style="fill:#000000; fill-opacity:0.0; 
stroke:#000000; stroke-width:680; stroke-opacity:1; 
stroke-linecap:round; stroke-linejoin:round;">
<path d="M57897 45493
L57897 45373
" />
<path d="M56897 45493
L56897 45373
" />
<path d="M55897 45493
L55897 45373
" />
</g>
<g style="fill:#000000; fill-opacity:0.0; 
stroke:#000000; stroke-width:39.3701; stroke-opacity:1; 
stroke-linecap:round; stroke-linejoin:round;">
</g>
<g style="fill:#000000; fill-opacity:1.0; 
stroke:#000000; stroke-width:39.3701; stroke-opacity:1; 
stroke-linecap:round; stroke-linejoin:round;">
<polyline style="fill-rule:evenodd;"
points="62032,42533
62032,43293
61392,43293
61392,42533
62032,42533
" /> 
</g>
<g style="fill:#000000; fill-opacity:1.0; 
stroke:#000000; stroke-width:680; stroke-opacity:1; 
stroke-linecap:round; stroke-linejoin:round;">
</g>
<g style="fill:#000000; fill-opacity:0.0; 
stroke:#000000; stroke-width:680; stroke-opacity:1; 
stroke-linecap:round; stroke-linejoin:round;">
<path d="M60712 42973
L60712 42853
" />
<path d="M59712 42973
L59712 42853
" />
<path d="M58712 42973
L58712 42853
" />
<path d="M57712 42973
L57712 42853
" />
<path d="M56712 42973
L56712 42853
" />
<path d="M55712 42973
L55712 42853
" />
<path d="M54712 42973
L54712 42853
" />
<path d="M53712 42973
L53712 42853
" />
<path d="M52712 42973
L52712 42853
" />
</g>
<g style="fill:#000000; fill-opacity:0.0; 
stroke:#000000; stroke-width:39.3701; stroke-opacity:1; 
stroke-linecap:round; stroke-linejoin:round;">
</g>
<g style="fill:#000000; fill-opacity:1.0; 
stroke:#000000; stroke-width:39.3701; stroke-opacity:1; 
stroke-linecap:round; stroke-linejoin:round;">
<polyline style="fill-rule:evenodd;"
points="59722,41009
59977,41009
59977,41442
59722,41442
59722,41009
" /> 
<polyline style="fill-rule:evenodd;"
points="59722,41757
59977,41757
59977,42190
59722,42190
59722,41757
" /> 
<polyline style="fill-rule:evenodd;"
points="53615,41997
53615,42252
53182,42252
53182,41997
53615,41997
" /> 
<polyline style="fill-rule:evenodd;"
points="52867,41997
52867,42252
52434,42252
52434,41997
52867,41997
" /> 
<polyline style="fill-rule:evenodd;"
points="57647,41009
57902,41009
57902,41442
57647,41442
57647,41009
" /> 
<polyline style="fill-rule:evenodd;"
points="57647,41757
57902,41757
57902,42190
57647,42190
57647,41757
" /> 
<polyline style="fill-rule:evenodd;"
points="58577,42190
58322,42190
58322,41757
58577,41757
58577,42190
" /> 
<polyline style="fill-rule:evenodd;"
points="58577,41442
58322,41442
58322,41009
58577,41009
58577,41442
" /> 
<polyline style="fill-rule:evenodd;"
points="59277,42190
59022,42190
59022,41757
59277,41757
59277,42190
" /> 
<polyline style="fill-rule:evenodd;"
points="59277,41442
59022,41442
59022,41009
59277,41009
59277,41442
" /> 
<circle cx="57200" cy="44200" r="98.4252" /> 
<circle cx="56350" cy="40500" r="98.4252" /> 
<circle cx="54650" cy="40450" r="98.4252" /> 
<circle cx="57350" cy="41200" r="98.4252" /> 
<circle cx="55100" cy="40200" r="98.4252" /> 
<circle cx="55650" cy="40450" r="98.4252" /> 
<circle cx="60300" cy="40300" r="98.4252" /> 
<circle cx="52900" cy="40450" r="98.4252" /> 
<circle cx="56900" cy="40000" r="98.4252" /> 
<circle cx="56650" cy="40250" r="98.4252" /> 
<circle cx="53100" cy="40800" r="98.4252" /> 
<circle cx="52500" cy="40000" r="98.4252" /> 
<circle cx="60705" cy="40950" r="98.4252" /> 
<circle cx="54750" cy="41350" r="98.4252" /> 
<circle cx="55100" cy="41350" r="98.4252" /> 
<circle cx="55800" cy="42300" r="98.4252" /> 
<circle cx="55400" cy="42300" r="98.4252" /> 
<circle cx="54300" cy="42050" r="98.4252" /> 
<circle cx="56696" cy="43854" r="98.4252" /> 
<circle cx="53700" cy="41000" r="98.4252" /> 
<circle cx="61445" cy="41150" r="98.4252" /> 
</g>
<g style="fill:#000000; fill-opacity:1.0; 
stroke:#000000; stroke-width:98.4252; stroke-opacity:1; 
stroke-linecap:round; stroke-linejoin:round;">
</g>
<g style="fill:#000000; fill-opacity:0.0; 
stroke:#000000; stroke-width:98.4252; stroke-opacity:1; 
stroke-linecap:round; stroke-linejoin:round;">
<path d="M55100 40500
L55050 40500
" />
<path d="M55050 40500
L54750 40200
" />
<path d="M52675 42150
L52800 42150
" />
<path d="M52800 42150
L53215 42565
" />
<path d="M53215 43370
L53215 43387
" />
<path d="M53215 42565
L53215 43370
" />
<path d="M52510 41939
L52510 41984
" />
<path d="M52510 41984
L52675 42150
" />
<path d="M59850 41974
L59850 42095
" />
<path d="M59850 42095
L60030 42275
" />
<path d="M60931 42131
L60776 42275
" />
<path d="M60776 42275
L60030 42275
" />
<path d="M57750 41974
L58450 41974
" />
<path d="M58450 41974
L59150 41974
" />
<path d="M59150 41974
L59850 41974
" />
<path d="M52675 42150
L52754 42150
" />
<path d="M55600 40099
L55600 39468
" />
<path d="M55200 40500
L55600 40099
" />
<path d="M55100 40500
L55200 40500
" />
<path d="M60931 42131
L61712 42913
" />
<path d="M60931 41729
L60931 42131
" />
<path d="M53215 43387
L53215 43390
" />
<path d="M55897 45433
L55897 45409
" />
<path d="M55458 43830
L55212 43584
" />
<path d="M55212 43584
L53412 43584
" />
<path d="M53412 43584
L53215 43387
" />
<path d="M55897 45409
L55458 44970
" />
<path d="M55458 44970
L55458 43842
" />
<path d="M55458 43842
L55458 43830
" />
<path d="M57200 44200
L57850 43543
" />
<path d="M57850 43543
L61075 43550
" />
<path d="M61075 43550
L61712 42913
" />
<path d="M52750 42199
L52760 42189
" />
<path d="M52750 42200
L52750 42199
" />
<path d="M54750 40200
L53050 40200
" />
<path d="M52510 41496
L52510 41939
" />
<path d="M52510 41496
L52510 40489
" />
<path d="M52800 40200
L53050 40200
" />
<path d="M52510 40489
L52800 40200
" />
<path d="M56368 40500
L56368 39468
" />
<path d="M56350 40500
L56368 40500
" />
<path d="M53260 41039
L53260 41496
" />
<path d="M53850 40450
L54650 40450
" />
<path d="M53260 41039
L53850 40450
" />
<path d="M53260 41986
L53399 42125
" />
<path d="M56377 39478
L56368 39468
" />
<path d="M53260 41496
L53260 41986
" />
<path d="M55344 39468
L55344 39955
" />
<path d="M55344 39955
L55100 40200
" />
<path d="M57350 41200
L57749 41200
" />
<path d="M57749 41200
L57775 41225
" />
<path d="M55350 39474
L55344 39468
" />
<path d="M57350 41200
L57350 41200
" />
<path d="M55650 40900
L56899 40900
" />
<path d="M57433 40367
L57934 40367
" />
<path d="M56899 40900
L57433 40367
" />
<path d="M58450 41225
L58450 40883
" />
<path d="M58450 40883
L57934 40367
" />
<path d="M57934 40367
L57933 40367
" />
<path d="M58450 41225
L58560 41225
" />
<path d="M57934 40367
L57757 40367
" />
<path d="M56120 39476
L56112 39468
" />
<path d="M56100 39950
L56120 39476
" />
<path d="M56101 40450
L55650 40900
" />
<path d="M55650 40900
L55649 40901
" />
<path d="M56103 40448
L56101 40450
" />
<path d="M56106 39956
L56100 39950
" />
<path d="M56101 40450
L56106 39956
" />
<path d="M54260 41496
L54303 41496
" />
<path d="M54250 41485
L54260 41496
" />
<path d="M54250 41485
L54250 41100
" />
<path d="M55649 40901
L54450 40900
" />
<path d="M54450 40900
L54250 41100
" />
<path d="M59150 41225
L59150 40883
" />
<path d="M59150 40883
L59666 40367
" />
<path d="M59150 41225
L59150 41099
" />
<path d="M55497 40602
L55500 40600
" />
<path d="M55497 40604
L55497 40602
" />
<path d="M55850 39474
L55856 39468
" />
<path d="M55850 40250
L55850 39474
" />
<path d="M55650 40450
L55850 40250
" />
<path d="M55500 40600
L55650 40450
" />
<path d="M59783 40250
L59666 40367
" />
<path d="M55400 40700
L55500 40600
" />
<path d="M59733 40300
L59666 40367
" />
<path d="M59733 40300
L60300 40300
" />
<path d="M54000 41486
L54010 41496
" />
<path d="M54000 40950
L54250 40700
" />
<path d="M54250 40700
L55400 40700
" />
<path d="M54000 41486
L54000 40950
" />
<path d="M52760 41496
L52760 40594
" />
<path d="M52760 40594
L52900 40450
" />
<path d="M56879 39979
L56879 39468
" />
<path d="M56900 40000
L56879 39979
" />
<path d="M56900 39488
L56879 39468
" />
<path d="M53010 40889
L53010 41496
" />
<path d="M53010 40889
L53100 40800
" />
<path d="M56649 40249
L56650 40250
" />
<path d="M56650 39494
L56624 39468
" />
<path d="M56650 40250
L56650 39494
" />
<path d="M52510 39989
L52500 40000
" />
<path d="M52510 39448
L52510 39989
" />
<path d="M54900 40000
L52500 40000
" />
<path d="M59850 41225
L59927 41225
" />
<path d="M59927 41225
L60431 41729
" />
<path d="M60431 41223
L60705 40950
" />
<path d="M60431 41729
L60431 41223
" />
<path d="M55088 39811
L54900 40000
" />
<path d="M55088 39468
L55088 39811
" />
<path d="M54783 41791
L54832 41791
" />
<path d="M54750 41708
L54832 41791
" />
<path d="M54750 41708
L54750 41350
" />
<path d="M55088 41791
L55088 41361
" />
<path d="M55088 41361
L55100 41350
" />
<path d="M55856 42243
L55800 42300
" />
<path d="M55856 41791
L55856 42243
" />
<path d="M56112 42513
L55712 42913
" />
<path d="M56112 41791
L56112 42513
" />
<path d="M56368 42568
L56712 42913
" />
<path d="M56368 41791
L56368 42568
" />
<path d="M55600 42099
L55400 42300
" />
<path d="M55600 41791
L55600 42099
" />
<path d="M54300 42050
L54500 41850
" />
<path d="M56879 41429
L56879 41791
" />
<path d="M54500 41227
L54627 41100
" />
<path d="M54627 41100
L55250 41100
" />
<path d="M55250 41100
L55450 41300
" />
<path d="M55450 41300
L56750 41300
" />
<path d="M56750 41300
L56879 41429
" />
<path d="M54500 41850
L54500 41227
" />
<path d="M57215 41870
L57135 41791
" />
<path d="M57215 41870
L57217 43317
" />
<path d="M56700 43850
L57217 43317
" />
<path d="M56696 43853
L56700 43850
" />
<path d="M53510 41496
L53510 41189
" />
<path d="M53510 41189
L53700 41000
" />
<path d="M55749 43544
L55755 43544
" />
<path d="M55500 43550
L55749 43544
" />
<path d="M55215 43320
L55480 43550
" />
<path d="M55215 42500
L55215 43320
" />
<path d="M55500 43550
L55480 43550
" />
<path d="M55749 43549
L56897 44697
" />
<path d="M56897 44697
L56897 45433
" />
<path d="M55749 43544
L55749 43549
" />
<path d="M53760 41776
L53942 41958
" />
<path d="M53760 41496
L53760 41775
" />
<path d="M53760 41775
L53760 41776
" />
<path d="M54289 42305
L55020 42305
" />
<path d="M55020 42305
L55215 42500
" />
<path d="M53942 42192
L54055 42305
" />
<path d="M54055 42305
L54289 42305
" />
<path d="M53942 41958
L53942 42192
" />
<path d="M61431 41163
L61445 41150
" />
<path d="M61431 41729
L61431 41163
" />
</g> 
</svg>
