G04 #@! TF.FileFunction,Soldermask,Top*
%FSLAX46Y46*%
G04 Gerber Fmt 4.6, Leading zero omitted, Abs format (unit mm)*
G04 Created by KiCad (PCBNEW (2015-04-09 BZR 5589)-product) date Monday, June 29, 2015 'PMt' 04:43:37 PM*
%MOMM*%
G01*
G04 APERTURE LIST*
%ADD10C,0.100000*%
%ADD11R,0.750000X1.200000*%
%ADD12R,1.200000X0.750000*%
%ADD13R,0.450000X1.450000*%
%ADD14R,1.727200X2.032000*%
%ADD15O,1.727200X2.032000*%
%ADD16R,0.508000X1.143000*%
%ADD17O,1.473200X0.609600*%
%ADD18R,1.800860X1.399540*%
G04 APERTURE END LIST*
D10*
D11*
X161798000Y-107757000D03*
X161798000Y-105857000D03*
D12*
X179385000Y-105156000D03*
X177485000Y-105156000D03*
X174559000Y-105156000D03*
X172659000Y-105156000D03*
X169700000Y-105150000D03*
X167800000Y-105150000D03*
X164000000Y-105150000D03*
X165900000Y-105150000D03*
D13*
X169041000Y-107032000D03*
X168391000Y-107032000D03*
X167741000Y-107032000D03*
X167091000Y-107032000D03*
X166441000Y-107032000D03*
X165791000Y-107032000D03*
X165141000Y-107032000D03*
X164491000Y-107032000D03*
X163841000Y-107032000D03*
X163191000Y-107032000D03*
X163191000Y-112932000D03*
X163841000Y-112932000D03*
X164491000Y-112932000D03*
X165141000Y-112932000D03*
X165791000Y-112932000D03*
X166441000Y-112932000D03*
X167091000Y-112932000D03*
X167741000Y-112932000D03*
X168391000Y-112932000D03*
X169041000Y-112932000D03*
D14*
X155892500Y-115062000D03*
D15*
X158432500Y-115062000D03*
X160972500Y-115062000D03*
X163512500Y-115062000D03*
X166052500Y-115062000D03*
X168592500Y-115062000D03*
X171132500Y-115062000D03*
X173672500Y-115062000D03*
X176212500Y-115062000D03*
X178752500Y-115062000D03*
D16*
X170815000Y-106680000D03*
X173355000Y-106680000D03*
X174625000Y-106680000D03*
X175895000Y-106680000D03*
X177165000Y-106680000D03*
X178435000Y-106680000D03*
X179705000Y-106680000D03*
X179705000Y-113030000D03*
X178435000Y-113030000D03*
X177165000Y-113030000D03*
X175895000Y-113030000D03*
X174625000Y-113030000D03*
X173355000Y-113030000D03*
X172085000Y-113030000D03*
X170815000Y-113030000D03*
X172085000Y-106680000D03*
D17*
X161036000Y-113157000D03*
X161036000Y-111887000D03*
X161036000Y-110617000D03*
X161036000Y-109347000D03*
X155448000Y-109347000D03*
X155448000Y-110617000D03*
X155448000Y-111887000D03*
X155448000Y-113157000D03*
D18*
X159933640Y-105354120D03*
X155534360Y-105354120D03*
X155534360Y-107751880D03*
X159933640Y-107751880D03*
M02*
