G04 #@! TF.FileFunction,Copper,L1,Top,Signal*
%FSLAX46Y46*%
G04 Gerber Fmt 4.6, Leading zero omitted, Abs format (unit mm)*
G04 Created by KiCad (PCBNEW (2015-04-09 BZR 5589)-product) date Monday, June 29, 2015 'PMt' 04:43:36 PM*
%MOMM*%
G01*
G04 APERTURE LIST*
%ADD10C,0.100000*%
%ADD11R,0.750000X1.200000*%
%ADD12R,1.200000X0.750000*%
%ADD13R,0.450000X1.450000*%
%ADD14R,1.727200X2.032000*%
%ADD15O,1.727200X2.032000*%
%ADD16R,0.508000X1.143000*%
%ADD17O,1.473200X0.609600*%
%ADD18R,1.800860X1.399540*%
%ADD19C,0.600000*%
%ADD20C,0.400000*%
%ADD21C,0.508000*%
%ADD22C,0.250000*%
G04 APERTURE END LIST*
D10*
D11*
X161798000Y-107757000D03*
X161798000Y-105857000D03*
D12*
X179385000Y-105156000D03*
X177485000Y-105156000D03*
X174559000Y-105156000D03*
X172659000Y-105156000D03*
X169700000Y-105150000D03*
X167800000Y-105150000D03*
X164000000Y-105150000D03*
X165900000Y-105150000D03*
D13*
X169041000Y-107032000D03*
X168391000Y-107032000D03*
X167741000Y-107032000D03*
X167091000Y-107032000D03*
X166441000Y-107032000D03*
X165791000Y-107032000D03*
X165141000Y-107032000D03*
X164491000Y-107032000D03*
X163841000Y-107032000D03*
X163191000Y-107032000D03*
X163191000Y-112932000D03*
X163841000Y-112932000D03*
X164491000Y-112932000D03*
X165141000Y-112932000D03*
X165791000Y-112932000D03*
X166441000Y-112932000D03*
X167091000Y-112932000D03*
X167741000Y-112932000D03*
X168391000Y-112932000D03*
X169041000Y-112932000D03*
D14*
X155892500Y-115062000D03*
D15*
X158432500Y-115062000D03*
X160972500Y-115062000D03*
X163512500Y-115062000D03*
X166052500Y-115062000D03*
X168592500Y-115062000D03*
X171132500Y-115062000D03*
X173672500Y-115062000D03*
X176212500Y-115062000D03*
X178752500Y-115062000D03*
D16*
X170815000Y-106680000D03*
X173355000Y-106680000D03*
X174625000Y-106680000D03*
X175895000Y-106680000D03*
X177165000Y-106680000D03*
X178435000Y-106680000D03*
X179705000Y-106680000D03*
X179705000Y-113030000D03*
X178435000Y-113030000D03*
X177165000Y-113030000D03*
X175895000Y-113030000D03*
X174625000Y-113030000D03*
X173355000Y-113030000D03*
X172085000Y-113030000D03*
X170815000Y-113030000D03*
X172085000Y-106680000D03*
D17*
X161036000Y-113157000D03*
X161036000Y-111887000D03*
X161036000Y-110617000D03*
X161036000Y-109347000D03*
X155448000Y-109347000D03*
X155448000Y-110617000D03*
X155448000Y-111887000D03*
X155448000Y-113157000D03*
D18*
X159933640Y-105354120D03*
X155534360Y-105354120D03*
X155534360Y-107751880D03*
X159933640Y-107751880D03*
D19*
X163322000Y-108458000D03*
X170053000Y-106807000D03*
X170878812Y-119950892D03*
X162814000Y-105156000D03*
X171196000Y-105156000D03*
X176022000Y-105156000D03*
X157861000Y-109029500D03*
X158496000Y-111887000D03*
X170900000Y-111800000D03*
X169700000Y-110600000D03*
X167068500Y-108458000D03*
X174625000Y-111569500D03*
X179070000Y-107950000D03*
X164401500Y-108458000D03*
X173990000Y-107950000D03*
X159893000Y-106426000D03*
X166497000Y-109093000D03*
X155829000Y-106426000D03*
X166751000Y-109982000D03*
X169291000Y-108458000D03*
X172400000Y-110800000D03*
X168148000Y-108458000D03*
X173800000Y-111300000D03*
X165417500Y-111506000D03*
X166497000Y-111506000D03*
X167894000Y-111506000D03*
X168783000Y-111506000D03*
X168384220Y-119888000D03*
X172402500Y-117094000D03*
X166387780Y-119888000D03*
X166370000Y-119888000D03*
X169862500Y-117094000D03*
X163888420Y-119888000D03*
X159639000Y-110617000D03*
D20*
X162369500Y-108331000D02*
X163195000Y-108331000D01*
X163195000Y-108331000D02*
X163322000Y-108458000D01*
X162369500Y-112014000D02*
X162369500Y-108331000D01*
X162369500Y-108331000D02*
X162369500Y-108328500D01*
D21*
X161036000Y-113157000D02*
X162058668Y-113157000D01*
D20*
X162369500Y-112846168D02*
X162058668Y-113157000D01*
X162369500Y-112014000D02*
X162369500Y-112846168D01*
X162369500Y-108328500D02*
X161798000Y-107757000D01*
X158432500Y-115062000D02*
X158432500Y-114515900D01*
X158432500Y-114515900D02*
X159791400Y-113157000D01*
X159791400Y-113157000D02*
X161036000Y-113157000D01*
X163841000Y-107939000D02*
X163841000Y-107032000D01*
X163322000Y-108458000D02*
X163841000Y-107939000D01*
D22*
X161798000Y-107757000D02*
X161986000Y-107757000D01*
X170688000Y-106807000D02*
X170815000Y-106680000D01*
D21*
X170688000Y-106807000D02*
X170053000Y-106807000D01*
D22*
X161417000Y-113157000D02*
X161036000Y-113157000D01*
D20*
X170878812Y-119950892D02*
X170878812Y-119316812D01*
X170307000Y-118745000D02*
X165608000Y-118745000D01*
X164491000Y-113881500D02*
X164782500Y-114173000D01*
X164782500Y-114173000D02*
X164782500Y-117856000D01*
X164782500Y-117856000D02*
X165608000Y-118745000D01*
X164491000Y-113881500D02*
X164491000Y-112932000D01*
X170878812Y-119316812D02*
X170307000Y-118745000D01*
X162814000Y-105156000D02*
X162499000Y-105156000D01*
X162499000Y-105156000D02*
X161798000Y-105857000D01*
X164000000Y-105150000D02*
X164200000Y-105150000D01*
X164200000Y-105150000D02*
X165141000Y-106091000D01*
X165141000Y-106091000D02*
X165141000Y-107032000D01*
X163642000Y-105156000D02*
X163703000Y-105156000D01*
X164491000Y-110700000D02*
X164491000Y-110273500D01*
X164491000Y-112932000D02*
X164491000Y-110700000D01*
X164491000Y-110273500D02*
X165122500Y-109642000D01*
D22*
X165141000Y-109642000D02*
X165122500Y-109642000D01*
X177485000Y-105222000D02*
X177485000Y-105156000D01*
D20*
X158496000Y-111887000D02*
X161036000Y-111887000D01*
X155892500Y-114490500D02*
X158496000Y-111887000D01*
X155892500Y-115062000D02*
X155892500Y-114490500D01*
D21*
X163642000Y-105156000D02*
X162814000Y-105156000D01*
D20*
X164084000Y-105156000D02*
X163642000Y-105156000D01*
X177485000Y-105156000D02*
X176022000Y-105156000D01*
X171196000Y-105156000D02*
X172659000Y-105156000D01*
X171196000Y-105156000D02*
X169352000Y-105156000D01*
X165141000Y-109642000D02*
X165141000Y-109134000D01*
X165141000Y-109134000D02*
X165141000Y-107032000D01*
X158496000Y-109664500D02*
X157861000Y-109029500D01*
X158496000Y-111887000D02*
X158496000Y-109664500D01*
X170815000Y-111885000D02*
X170900000Y-111800000D01*
D22*
X169700000Y-110600000D02*
X169600000Y-110700000D01*
D20*
X169600000Y-110700000D02*
X164491000Y-110700000D01*
X170815000Y-113030000D02*
X170815000Y-111885000D01*
D22*
X167068500Y-108458000D02*
X167091000Y-108435500D01*
X167091000Y-107032000D02*
X167091000Y-108435500D01*
X174625000Y-113030000D02*
X174625000Y-111569500D01*
X179070000Y-105854500D02*
X179385000Y-105539500D01*
X179070000Y-107950000D02*
X179070000Y-105854500D01*
X179385000Y-105539500D02*
X179385000Y-105156000D01*
X164401500Y-108458000D02*
X164401500Y-107121500D01*
X164401500Y-107121500D02*
X164491000Y-107032000D01*
X164401500Y-108458000D02*
X164427500Y-108432000D01*
X173990000Y-105791000D02*
X173990000Y-107950000D01*
X174559000Y-105222000D02*
X173990000Y-105791000D01*
X174559000Y-105156000D02*
X174559000Y-105222000D01*
X166441000Y-107032000D02*
X166441000Y-106059000D01*
X166441000Y-106059000D02*
X167350000Y-105150000D01*
X167350000Y-105150000D02*
X167800000Y-105150000D01*
X167576500Y-109093000D02*
X176911000Y-109093000D01*
X167513000Y-109093000D02*
X167576500Y-109093000D01*
X176911000Y-109093000D02*
X179705000Y-111887000D01*
X179705000Y-111887000D02*
X179705000Y-113030000D01*
X166687500Y-109093000D02*
X166497000Y-109093000D01*
X167576500Y-109093000D02*
X166687500Y-109093000D01*
X166441000Y-109037000D02*
X166497000Y-109093000D01*
X166441000Y-107032000D02*
X166441000Y-109037000D01*
X159893000Y-106426000D02*
X159933640Y-106385360D01*
X159933640Y-105354120D02*
X159933640Y-106385360D01*
X165791000Y-105405000D02*
X165542000Y-105156000D01*
X165791000Y-107032000D02*
X165791000Y-105405000D01*
X176530000Y-109601000D02*
X178435000Y-111506000D01*
X178435000Y-113030000D02*
X178435000Y-111506000D01*
X166751000Y-109982000D02*
X167132000Y-109601000D01*
X165791000Y-109530000D02*
X166243000Y-109982000D01*
X166243000Y-109982000D02*
X166751000Y-109982000D01*
X165791000Y-107032000D02*
X165791000Y-108895000D01*
X165791000Y-108895000D02*
X165791000Y-109530000D01*
X155829000Y-106426000D02*
X155915360Y-106339640D01*
X167132000Y-109601000D02*
X176530000Y-109601000D01*
X155829000Y-105648760D02*
X155534360Y-105354120D01*
X155829000Y-106426000D02*
X155829000Y-105648760D01*
X168391000Y-107032000D02*
X168391000Y-107812000D01*
X169037000Y-108458000D02*
X169291000Y-108458000D01*
X168391000Y-107812000D02*
X169037000Y-108458000D01*
X172085000Y-111115000D02*
X172400000Y-110800000D01*
X172085000Y-113030000D02*
X172085000Y-111115000D01*
X167741000Y-107032000D02*
X167741000Y-108051000D01*
X167741000Y-108051000D02*
X168148000Y-108458000D01*
X173355000Y-113030000D02*
X173355000Y-111745000D01*
X173355000Y-111745000D02*
X173800000Y-111300000D01*
X163102500Y-112932000D02*
X160972500Y-115062000D01*
X163191000Y-112932000D02*
X163102500Y-112932000D01*
X163841000Y-114733500D02*
X163512500Y-115062000D01*
X163841000Y-112932000D02*
X163841000Y-114733500D01*
X165141000Y-112932000D02*
X165141000Y-111782500D01*
X165141000Y-111782500D02*
X165417500Y-111506000D01*
X165458500Y-111547000D02*
X165417500Y-111506000D01*
X165791000Y-114800500D02*
X166052500Y-115062000D01*
X165791000Y-112932000D02*
X165791000Y-114800500D01*
X166441000Y-111562000D02*
X166441000Y-112932000D01*
X166497000Y-111506000D02*
X166441000Y-111562000D01*
X168148000Y-115062000D02*
X168592500Y-115062000D01*
X167091000Y-114005000D02*
X168148000Y-115062000D01*
X167091000Y-112932000D02*
X167091000Y-114005000D01*
X167894000Y-111506000D02*
X167883000Y-111517000D01*
X168391000Y-112003000D02*
X167894000Y-111506000D01*
X168391000Y-112932000D02*
X168391000Y-112003000D01*
X169041000Y-111764000D02*
X168783000Y-111506000D01*
X169041000Y-112932000D02*
X169041000Y-111764000D01*
X175895000Y-110998000D02*
X175895000Y-113030000D01*
X175514000Y-110617000D02*
X175895000Y-110998000D01*
X173562701Y-110619561D02*
X175514000Y-110617000D01*
X172700000Y-111400000D02*
X173562701Y-110619561D01*
X172720000Y-113792000D02*
X172700000Y-111400000D01*
X172402500Y-114109500D02*
X172720000Y-113792000D01*
X172402500Y-117094000D02*
X172402500Y-114109500D01*
X175895000Y-113030000D02*
X175895000Y-113284000D01*
X177165000Y-113030000D02*
X177165000Y-111003502D01*
X169862500Y-111569500D02*
X169862500Y-117094000D01*
X171323000Y-110109000D02*
X169862500Y-111569500D01*
X176270498Y-110109000D02*
X171323000Y-110109000D01*
X177165000Y-111003502D02*
X176270498Y-110109000D01*
D20*
X159639000Y-110617000D02*
X161036000Y-110617000D01*
M02*
